<svg width="40" height="41" viewBox="0 0 40 41" fill="none" xmlns="http://www.w3.org/2000/svg">
<rect y="0.5" width="40" height="40" rx="20" fill="#F0B90B" fill-opacity="0.1"/>
<path d="M14.652 20.5062L12.451 22.7072L10.25 20.5062L12.451 18.3052L14.652 20.5062ZM20.0062 15.152L23.7776 18.9234L25.9786 16.7224L20.0062 10.75L14.0214 16.7224L16.2224 18.9234L20.0062 15.152ZM27.549 18.3052L25.348 20.5062L27.549 22.7072L29.75 20.5062L27.549 18.3052ZM20.0062 25.848L16.2224 22.0766L14.0214 24.2776L19.9938 30.25L25.9662 24.2776L23.7652 22.0766L20.0062 25.848ZM20.0062 22.7072L22.2072 20.5062L20.0062 18.3052L17.8052 20.5062L20.0062 22.7072Z" fill="#F0B90B"/>
</svg>
